<svg xmlns="http://www.w3.org/2000/svg"  viewBox="0 0 100 100" width="100px" height="100px" clip-rule="evenodd"><path d="M25.5,93C17.505,93,11,86.495,11,78.5v-53C11,17.505,17.505,11,25.5,11 h53C86.495,11,93,17.505,93,25.5v53C93,86.495,86.495,93,78.5,93H25.5z" opacity=".35"/><path fill="#f2f2f2" d="M23.5,91C15.505,91,9,84.495,9,76.5v-53C9,15.505,15.505,9,23.5,9h53C84.495,9,91,15.505,91,23.5v53 C91,84.495,84.495,91,76.5,91H23.5z"/><path fill="#70bfff" d="M79.5,15.5h-59c-2.761,0-5,2.239-5,5v59c0,2.761,2.239,5,5,5h59c2.761,0,5-2.239,5-5v-59 C84.5,17.739,82.261,15.5,79.5,15.5z"/><path fill="#fff" fill-rule="evenodd" d="M30,29.999h20v40H30V29.999z M50,70.001l20-20v20H50z M70,37.501c-3.474-1.289-6.211-4.026-7.5-7.5c-1.289,3.472-4.028,6.211-7.5,7.5c3.472,1.291,6.209,4.028,7.5,7.5 C63.789,41.53,66.528,38.791,70,37.501z" clip-rule="evenodd"/><path fill="none" stroke="#40396e" stroke-linecap="round" stroke-linejoin="round" stroke-miterlimit="10" stroke-width="3" d="M76.5,84.5h-53c-4.418,0-8-3.582-8-8v-53c0-4.418,3.582-8,8-8h53c4.418,0,8,3.582,8,8v53C84.5,80.918,80.918,84.5,76.5,84.5z"/></svg>